<?xml version="1.0" encoding="utf-8"?>
<!-- Generator: Adobe Illustrator 23.1.0, SVG Export Plug-In . SVG Version: 6.00 Build 0)  -->
<svg version="1.1" id="圖層_1" xmlns="http://www.w3.org/2000/svg" xmlns:xlink="http://www.w3.org/1999/xlink" x="0px" y="0px"
	 viewBox="0 0 595.3 841.9" style="enable-background:new 0 0 595.3 841.9;" xml:space="preserve">
<style type="text/css">
	.st0{fill:#DB423E;}
</style>
<path class="st0" d="M322.5,325.3v-35.4c0-4.4-2.4-8.5-6.2-10.7l-30.6-17.7c-3.8-2.2-8.5-2.2-12.4,0l-30.6,17.7
	c-3.8,2.2-6.2,6.3-6.2,10.7v35.4c0,4.4,2.4,8.5,6.2,10.7l30.6,17.7c3.8,2.2,8.5,2.2,12.4,0l30.6-17.7
	C320.2,333.7,322.5,329.7,322.5,325.3z"/>
<path class="st0" d="M322.3,380.6h-85.5c-5.6,0-10.2-4.6-10.2-10.2l0,0c0-5.6,4.6-10.2,10.2-10.2h85.5c5.6,0,10.2,4.6,10.2,10.2l0,0
	C332.5,376,327.9,380.6,322.3,380.6z"/>
<path class="st0" d="M361.8,598.4H197.4c-5.6,0-10.2-4.6-10.2-10.2l0,0c0-5.6,4.6-10.2,10.2-10.2h164.5c5.6,0,10.2,4.6,10.2,10.2
	l0,0C372,593.9,367.4,598.4,361.8,598.4z"/>
<path class="st0" d="M361.1,533.9l-20.6-18.4c-3-2.7-4.3-6.9-3.1-10.8l0.1-0.3c1.3-4.2-0.3-8.7-3.7-11.4l-9.3-7
	c-1.9-1.5-3.4-3.6-3.9-6.1l-18.6-82.5c-1.1-4.8-5.3-8.2-10.2-8.2h-11.5H279h-11.3c-4.9,0-9.1,3.4-10.2,8.2l-18.6,82.5
	c-0.5,2.5-1.9,4.6-3.9,6.1l-9.3,7c-3.5,2.6-5,7.2-3.7,11.4l0.1,0.3c1.2,3.9-0.1,8.1-3.1,10.8l-20.6,18.4c-1,0.9-1.9,2-2.5,3.2
	l-3.5,7.1c-1.8,3.6-1.4,8,1.2,11.2l7.9,10c2,2.5,5,4,8.3,4h69.6h1.1h69.6c3.2,0,6.3-1.4,8.3-4l7.9-10c2.5-3.2,3-7.5,1.2-11.2
	l-3.5-7.1C362.9,536,362.1,534.9,361.1,533.9z"/>
</svg>
