<?xml version="1.0" encoding="utf-8"?>
<!-- Generator: Adobe Illustrator 23.1.0, SVG Export Plug-In . SVG Version: 6.00 Build 0)  -->
<svg version="1.1" id="圖層_1" xmlns="http://www.w3.org/2000/svg" xmlns:xlink="http://www.w3.org/1999/xlink" x="0px" y="0px"
	 viewBox="0 0 595.3 841.9" style="enable-background:new 0 0 595.3 841.9;" xml:space="preserve">
<style type="text/css">
	.st0{fill:#E8423F;}
</style>
<path class="st0" d="M345.8,357.4H227.9c-5.8,0-10.6-4.7-10.6-10.6l0,0c0-5.8,4.7-10.6,10.6-10.6h117.9c5.8,0,10.6,4.7,10.6,10.6
	l0,0C356.4,352.6,351.6,357.4,345.8,357.4z"/>
<path class="st0" d="M395.1,670.7H177.9c-5.8,0-10.6-4.7-10.6-10.6v-2.6c0-5.8,4.7-10.6,10.6-10.6h217.2c5.8,0,10.6,4.7,10.6,10.6
	v2.6C405.7,666,401,670.7,395.1,670.7z"/>
<path class="st0" d="M372.7,557.4L372.7,557.4c3.8-3.5,4.5-9.2,1.7-13.4l-35.6-54.1c-0.8-1.3-1.4-2.7-1.6-4.3l-11.9-83.7
	c-0.3-1.8,0-3.7,0.6-5.4l5.8-14.5c2.8-6.9-2.3-14.3-9.7-14.3h-35.3h-0.3h-35.3c-7.4,0-12.4,7.5-9.7,14.3l5.8,14.5
	c0.7,1.7,0.9,3.5,0.6,5.4l-11.9,83.7c-0.2,1.5-0.8,3-1.6,4.3L198.9,544c-2.8,4.3-2.1,10,1.7,13.4l0,0c4.4,4,4.6,10.8,0.4,15
	l-28.5,28.7c-3.2,3.3-4,8.3-1.8,12.3l9.1,16.8c1.8,3.4,5.3,5.5,9.2,5.5h97.6h0.3h97.6c3.8,0,7.4-2.1,9.2-5.5l9-16.8
	c2.2-4,1.5-9-1.8-12.3l-28.5-28.7C368.1,568.2,368.3,561.4,372.7,557.4z"/>
<path class="st0" d="M372.4,205.7c-9.1,0-16.5,7.4-16.5,16.5c0,3.9,1.4,7.5,3.7,10.3l-29.3,20.8c-2.6,1.8-6.2,1.1-7.9-1.6
	l-30.9-49.5c-0.3-0.4-0.6-0.8-0.9-1.1c7.3-1.7,12.7-8.2,12.7-16c0-9.1-7.4-16.5-16.5-16.5s-16.5,7.4-16.5,16.5
	c0,7.8,5.4,14.3,12.7,16c-0.3,0.3-0.6,0.7-0.9,1.1l-30.9,49.5c-1.7,2.7-5.3,3.4-7.9,1.6L214,232.5c2.3-2.8,3.7-6.4,3.7-10.3
	c0-9.1-7.4-16.5-16.5-16.5s-16.5,7.4-16.5,16.5s7.4,16.4,16.5,16.4c1.2,0,2.5-0.2,3.6-0.4l20.4,83.1c0.6,2.5,2.8,4.2,5.3,4.2h39.8
	h16.5h16.5H343c2.5,0,4.8-1.7,5.4-4.2l20.4-83.1c1.2,0.3,2.4,0.4,3.6,0.4c9.1,0,16.5-7.4,16.5-16.4S381.5,205.7,372.4,205.7z"/>
</svg>
